<svg width="25" height="24" viewBox="0 0 25 24" fill="none" xmlns="http://www.w3.org/2000/svg">
<g clip-path="url(#clip0_4329_114195)">
<path d="M22.8582 7.71859C22.8112 7.64392 22.746 7.58238 22.6688 7.53971C22.5916 7.49705 22.5048 7.47465 22.4166 7.4746H11.3224C11.1803 7.4848 11.0474 7.54852 10.9505 7.65291C10.8536 7.75729 10.7999 7.89456 10.8002 8.037C10.8002 8.3182 11.0442 8.71956 11.3224 8.71956H21.4973L19.2267 15.741H10.4349L5.95339 4.42382C5.92028 4.32113 5.85617 4.23122 5.76988 4.16645C5.68359 4.10168 5.57936 4.06523 5.47151 4.06211H3.58425C3.44577 4.06211 3.31296 4.11712 3.21504 4.21504C3.11712 4.31296 3.06211 4.44577 3.06211 4.58425C3.06211 4.86545 3.14263 5.26681 3.42383 5.26681H4.90972L9.39059 16.5846C9.42573 16.6939 9.49594 16.7886 9.59033 16.8539C9.68472 16.9193 9.79803 16.9518 9.91272 16.9463H19.6635C19.7665 16.9462 19.8673 16.9157 19.9531 16.8585C20.0388 16.8013 20.1057 16.72 20.1453 16.6248L22.8984 8.40115C22.962 8.17556 22.9478 7.93515 22.8582 7.71859ZM10.8478 18.1491C10.6095 18.1491 10.3766 18.2198 10.1785 18.3522C9.98041 18.4845 9.826 18.6727 9.73482 18.8928C9.64364 19.1129 9.61978 19.3552 9.66626 19.5889C9.71275 19.8225 9.82748 20.0372 9.99596 20.2057C10.1644 20.3742 10.3791 20.4889 10.6128 20.5354C10.8465 20.5819 11.0887 20.558 11.3088 20.4668C11.529 20.3757 11.7171 20.2212 11.8495 20.0231C11.9819 19.825 12.0525 19.5921 12.0525 19.3538C12.0522 19.0345 11.9251 18.7284 11.6992 18.5028C11.4733 18.2771 11.1671 18.1491 10.8478 18.1491ZM18.6479 18.1491C18.3284 18.1598 18.0262 18.297 17.8078 18.5305C17.5894 18.7639 17.4727 19.0746 17.4834 19.3941C17.4941 19.7136 17.6313 20.0158 17.8647 20.2342C18.0982 20.4525 18.4089 20.5692 18.7284 20.5585H18.8089C18.9699 20.5519 19.128 20.5131 19.2738 20.4444C19.4196 20.3757 19.5501 20.2785 19.6578 20.1586C19.7654 20.0386 19.848 19.8984 19.9006 19.746C19.9532 19.5937 19.9748 19.4324 19.9641 19.2716C19.9534 19.1108 19.9106 18.9537 19.8383 18.8097C19.7659 18.6657 19.6655 18.5376 19.5429 18.433C19.4203 18.3284 19.278 18.2494 19.1244 18.2007C18.9708 18.1519 18.8083 18.1344 18.6479 18.1491Z" fill="#999999"/>
<path fill-rule="evenodd" clip-rule="evenodd" d="M3.17112 4.17112C3.28069 4.06155 3.4293 4 3.58425 4H5.4733C5.59398 4.00349 5.71062 4.0443 5.80717 4.11677C5.90317 4.18884 5.97463 4.28871 6.01186 4.40279L10.4771 15.6789H19.1815L21.412 8.78167H11.3224C11.1534 8.78167 11.0066 8.66155 10.9063 8.51958C10.8048 8.37594 10.7381 8.19303 10.7381 8.037C10.7381 8.03694 10.7381 8.03705 10.7381 8.037C10.7378 7.87889 10.7974 7.72652 10.905 7.61065C11.0126 7.49473 11.1602 7.42397 11.3179 7.41265L11.3224 7.41233L22.4166 7.41249C22.5153 7.41254 22.6124 7.43761 22.6988 7.48535C22.7853 7.53309 22.8582 7.60195 22.9108 7.6855L22.9164 7.69449C23.0114 7.92393 23.0256 8.17899 22.9582 8.41799L22.9574 8.42089L20.2028 16.6487C20.1585 16.7552 20.0835 16.8462 19.9875 16.9102C19.8916 16.9742 19.7788 17.0083 19.6635 17.0084H9.91416C9.91467 17.0084 9.91519 17.0083 9.91571 17.0083L9.91272 16.9463V17.0084H9.91416C9.78635 17.0142 9.66015 16.9779 9.55496 16.905C9.44992 16.8322 9.37164 16.727 9.33211 16.6056L9.33284 16.6074L9.39059 16.5846L9.33146 16.6036C9.33167 16.6042 9.33189 16.6049 9.33211 16.6056L4.86751 5.32892H4.90972V5.26681L4.85197 5.28967L4.86751 5.32892H3.42383C3.24576 5.32892 3.13916 5.19941 3.08001 5.05444C3.02054 4.90869 3 4.72916 3 4.58425C3 4.4293 3.06155 4.28069 3.17112 4.17112ZM3.58425 4.12422C3.46224 4.12422 3.34523 4.17269 3.25896 4.25896C3.17269 4.34523 3.12422 4.46224 3.12422 4.58425C3.12422 4.72054 3.14394 4.88229 3.19503 5.00751C3.24644 5.13352 3.32069 5.2047 3.42383 5.2047H4.95193L9.44984 16.5655C9.48081 16.6618 9.54253 16.7453 9.6257 16.8029C9.70886 16.8605 9.80869 16.8891 9.90974 16.8842L9.91272 16.8841L19.6634 16.8842C19.7543 16.8841 19.843 16.8572 19.9186 16.8068C19.9936 16.7568 20.0522 16.6859 20.0872 16.6029L22.8391 8.38287C22.8979 8.17283 22.8851 7.94922 22.8028 7.7473C22.7617 7.68349 22.7053 7.63083 22.6388 7.59408C22.5707 7.55649 22.4943 7.53675 22.4165 7.53671H11.3247C11.1991 7.54627 11.0817 7.60284 10.996 7.69517C10.9098 7.78802 10.862 7.91013 10.8623 8.03684C10.8623 8.162 10.9177 8.32053 11.0077 8.44788C11.0989 8.57688 11.2132 8.65745 11.3224 8.65745H21.5827L19.2719 15.8031H10.3927L5.89414 4.44292C5.86498 4.35245 5.80862 4.27319 5.7326 4.21612C5.6568 4.15923 5.56529 4.12714 5.47058 4.12422H3.58425ZM18.644 18.0871C18.8121 18.0719 18.9822 18.0904 19.1432 18.1415C19.3047 18.1927 19.4543 18.2758 19.5832 18.3858C19.7121 18.4958 19.8177 18.6304 19.8938 18.7818C19.9698 18.9333 20.0148 19.0984 20.0261 19.2675C20.0373 19.4365 20.0146 19.6061 19.9593 19.7663C19.904 19.9265 19.8172 20.074 19.704 20.2001C19.5908 20.3262 19.4535 20.4283 19.3002 20.5006C19.147 20.5728 18.9808 20.6136 18.8115 20.6206L18.8089 20.6207L18.7294 20.6206C18.3938 20.6316 18.0676 20.5089 17.8223 20.2795C17.5768 20.0499 17.4326 19.7321 17.4213 19.3962C17.4101 19.0602 17.5328 18.7335 17.7624 18.488C17.9917 18.243 18.3087 18.0988 18.644 18.0871ZM19.1056 18.2599C18.9599 18.2136 18.8058 18.197 18.6535 18.211L18.6499 18.2113C18.3469 18.2214 18.0603 18.3514 17.8532 18.5729C17.646 18.7943 17.5354 19.089 17.5455 19.392C17.5556 19.6951 17.6857 19.9817 17.9072 20.1888C18.1286 20.3959 18.4233 20.5066 18.7263 20.4965L18.7284 20.4964L18.8076 20.4964C18.9599 20.49 19.1094 20.4532 19.2473 20.3882C19.3856 20.323 19.5094 20.2308 19.6116 20.1171C19.7137 20.0033 19.792 19.8703 19.8419 19.7258C19.8918 19.5813 19.9123 19.4282 19.9021 19.2757C19.892 19.1232 19.8514 18.9742 19.7828 18.8376C19.7141 18.701 19.6189 18.5795 19.5026 18.4803C19.3863 18.3811 19.2513 18.3061 19.1056 18.2599ZM10.144 18.3005C10.3523 18.1613 10.5973 18.087 10.8478 18.087C11.1837 18.087 11.5057 18.2217 11.7431 18.4588C11.9807 18.6961 12.1143 19.018 12.1146 19.3538C12.1146 19.6043 12.0403 19.8493 11.9011 20.0576C11.7619 20.266 11.5641 20.4283 11.3326 20.5242C11.1011 20.6201 10.8464 20.6452 10.6007 20.5963C10.3549 20.5474 10.1292 20.4268 9.95204 20.2496C9.77488 20.0724 9.65423 19.8467 9.60535 19.601C9.55647 19.3552 9.58155 19.1005 9.67743 18.869C9.77332 18.6376 9.93569 18.4397 10.144 18.3005ZM10.8478 18.2113C10.6218 18.2113 10.4009 18.2783 10.213 18.4038C10.0251 18.5294 9.87868 18.7078 9.7922 18.9166C9.70572 19.1254 9.68309 19.3551 9.72718 19.5767C9.77127 19.7984 9.88009 20.002 10.0399 20.1618C10.1997 20.3216 10.4033 20.4304 10.6249 20.4745C10.8465 20.5186 11.0763 20.4959 11.2851 20.4094C11.4938 20.323 11.6723 20.1765 11.7978 19.9886C11.9234 19.8007 11.9904 19.5799 11.9904 19.3539C11.9901 19.0511 11.8696 18.7607 11.6553 18.5467C11.441 18.3326 11.1505 18.2113 10.8478 18.2113Z" fill="#999999"/>
<path d="M10.8002 8.037C10.7999 7.89456 10.8536 7.75729 10.9505 7.65291C11.0474 7.54852 11.1803 7.4848 11.3224 7.4746H22.4166C22.5048 7.47465 22.5916 7.49705 22.6688 7.53971C22.746 7.58238 22.8112 7.64392 22.8582 7.71859C22.9478 7.93515 22.962 8.17556 22.8984 8.40115L20.1453 16.6248C20.1057 16.72 20.0388 16.8013 19.9531 16.8585C19.8673 16.9157 19.7665 16.9462 19.6635 16.9463H9.91272M10.8002 8.037C10.8002 8.3182 11.0442 8.71956 11.3224 8.71956H21.4973L19.2267 15.741H10.4349L5.95339 4.42382C5.92028 4.32113 5.85617 4.23122 5.76988 4.16645C5.68359 4.10168 5.57936 4.06523 5.47151 4.06211H3.58425C3.44577 4.06211 3.31296 4.11712 3.21504 4.21504C3.11712 4.31296 3.06211 4.44577 3.06211 4.58425C3.06211 4.86545 3.14263 5.26681 3.42383 5.26681H4.90972M10.8002 8.037H10.7381M4.90972 5.26681L9.39059 16.5846M4.90972 5.26681V5.32892H4.86751M4.90972 5.26681L4.85197 5.28967L4.86751 5.32892M9.39059 16.5846C9.42573 16.6939 9.49594 16.7886 9.59033 16.8539C9.68472 16.9193 9.79803 16.9518 9.91272 16.9463M9.39059 16.5846L9.33284 16.6074L9.33211 16.6056M9.39059 16.5846L9.33146 16.6036C9.33167 16.6042 9.33189 16.6049 9.33211 16.6056M9.91272 16.9463L9.91571 17.0083C9.91519 17.0083 9.91467 17.0084 9.91416 17.0084M9.91272 16.9463V17.0084H9.91416M10.7381 8.037C10.7381 8.19303 10.8048 8.37594 10.9063 8.51958C11.0066 8.66155 11.1534 8.78167 11.3224 8.78167H21.412L19.1815 15.6789H10.4771L6.01186 4.40279C5.97463 4.28871 5.90317 4.18884 5.80717 4.11677C5.71062 4.0443 5.59398 4.00349 5.4733 4H3.58425C3.4293 4 3.28069 4.06155 3.17112 4.17112C3.06155 4.28069 3 4.4293 3 4.58425C3 4.72916 3.02054 4.90869 3.08001 5.05444C3.13916 5.19941 3.24576 5.32892 3.42383 5.32892H4.86751M10.7381 8.037C10.7381 8.03705 10.7381 8.03694 10.7381 8.037ZM10.7381 8.037C10.7378 7.87889 10.7974 7.72652 10.905 7.61065C11.0126 7.49473 11.1602 7.42397 11.3179 7.41265L11.3224 7.41233L22.4166 7.41249C22.5153 7.41254 22.6124 7.43761 22.6988 7.48535C22.7853 7.53309 22.8582 7.60195 22.9108 7.6855L22.9164 7.69449C23.0114 7.92393 23.0256 8.17899 22.9582 8.41799L22.9574 8.42089L20.2028 16.6487C20.1585 16.7552 20.0835 16.8462 19.9875 16.9102C19.8916 16.9742 19.7788 17.0083 19.6635 17.0084H9.91416M9.91416 17.0084C9.78635 17.0142 9.66015 16.9779 9.55496 16.905C9.44992 16.8322 9.37164 16.727 9.33211 16.6056M9.33211 16.6056L4.86751 5.32892M10.8478 18.1491C10.6095 18.1491 10.3766 18.2198 10.1785 18.3522C9.98041 18.4845 9.826 18.6727 9.73482 18.8928C9.64364 19.1129 9.61978 19.3552 9.66626 19.5889C9.71275 19.8225 9.82748 20.0372 9.99596 20.2057C10.1644 20.3742 10.3791 20.4889 10.6128 20.5354C10.8465 20.5819 11.0887 20.558 11.3088 20.4668C11.529 20.3757 11.7171 20.2212 11.8495 20.0231C11.9819 19.825 12.0525 19.5921 12.0525 19.3538C12.0522 19.0345 11.9251 18.7284 11.6992 18.5028C11.4733 18.2771 11.1671 18.1491 10.8478 18.1491ZM18.6479 18.1491C18.3284 18.1598 18.0262 18.297 17.8078 18.5305C17.5894 18.7639 17.4727 19.0746 17.4834 19.3941C17.4941 19.7136 17.6313 20.0158 17.8647 20.2342C18.0982 20.4525 18.4089 20.5692 18.7284 20.5585H18.8089C18.9699 20.5519 19.128 20.5131 19.2738 20.4444C19.4196 20.3757 19.5501 20.2785 19.6578 20.1586C19.7654 20.0386 19.848 19.8984 19.9006 19.746C19.9532 19.5937 19.9748 19.4324 19.9641 19.2716C19.9534 19.1108 19.9106 18.9537 19.8383 18.8097C19.7659 18.6657 19.6655 18.5376 19.5429 18.433C19.4203 18.3284 19.278 18.2494 19.1244 18.2007C18.9708 18.1519 18.8083 18.1344 18.6479 18.1491ZM3.25896 4.25896C3.34523 4.17269 3.46224 4.12422 3.58425 4.12422H5.47058C5.56529 4.12714 5.6568 4.15923 5.7326 4.21612C5.80862 4.27319 5.86498 4.35245 5.89414 4.44292L10.3927 15.8031H19.2719L21.5827 8.65745H11.3224C11.2132 8.65745 11.0989 8.57688 11.0077 8.44788C10.9177 8.32053 10.8623 8.162 10.8623 8.03684C10.862 7.91013 10.9098 7.78802 10.996 7.69517C11.0817 7.60284 11.1991 7.54627 11.3247 7.53671H22.4165C22.4943 7.53675 22.5707 7.55649 22.6388 7.59408C22.7053 7.63083 22.7617 7.68349 22.8028 7.7473C22.8851 7.94922 22.8979 8.17283 22.8391 8.38287L20.0872 16.6029C20.0522 16.6859 19.9936 16.7568 19.9186 16.8068C19.843 16.8572 19.7543 16.8841 19.6634 16.8842L9.91272 16.8841L9.90974 16.8842C9.80869 16.8891 9.70886 16.8605 9.6257 16.8029C9.54253 16.7453 9.48081 16.6618 9.44984 16.5655L4.95193 5.2047H3.42383C3.32069 5.2047 3.24644 5.13352 3.19503 5.00751C3.14394 4.88229 3.12422 4.72054 3.12422 4.58425C3.12422 4.46224 3.17269 4.34523 3.25896 4.25896ZM19.1432 18.1415C18.9822 18.0904 18.8121 18.0719 18.644 18.0871C18.3087 18.0988 17.9917 18.243 17.7624 18.488C17.5328 18.7335 17.4101 19.0602 17.4213 19.3962C17.4326 19.7321 17.5768 20.0499 17.8223 20.2795C18.0676 20.5089 18.3938 20.6316 18.7294 20.6206L18.8089 20.6207L18.8115 20.6206C18.9808 20.6136 19.147 20.5728 19.3002 20.5006C19.4535 20.4283 19.5908 20.3262 19.704 20.2001C19.8172 20.074 19.904 19.9265 19.9593 19.7663C20.0146 19.6061 20.0373 19.4365 20.0261 19.2675C20.0148 19.0984 19.9698 18.9333 19.8938 18.7818C19.8177 18.6304 19.7121 18.4958 19.5832 18.3858C19.4543 18.2758 19.3047 18.1927 19.1432 18.1415ZM18.6535 18.211C18.8058 18.197 18.9599 18.2136 19.1056 18.2599C19.2513 18.3061 19.3863 18.3811 19.5026 18.4803C19.6189 18.5795 19.7141 18.701 19.7828 18.8376C19.8514 18.9742 19.892 19.1232 19.9021 19.2757C19.9123 19.4282 19.8918 19.5813 19.8419 19.7258C19.792 19.8703 19.7137 20.0033 19.6116 20.1171C19.5094 20.2308 19.3856 20.323 19.2473 20.3882C19.1094 20.4532 18.9599 20.49 18.8076 20.4964L18.7284 20.4964L18.7263 20.4965C18.4233 20.5066 18.1286 20.3959 17.9072 20.1888C17.6857 19.9817 17.5556 19.6951 17.5455 19.392C17.5354 19.089 17.646 18.7943 17.8532 18.5729C18.0603 18.3514 18.3469 18.2214 18.6499 18.2113L18.6535 18.211ZM10.8478 18.087C10.5973 18.087 10.3523 18.1613 10.144 18.3005C9.93569 18.4397 9.77332 18.6376 9.67743 18.869C9.58155 19.1005 9.55647 19.3552 9.60535 19.601C9.65423 19.8467 9.77488 20.0724 9.95204 20.2496C10.1292 20.4268 10.3549 20.5474 10.6007 20.5963C10.8464 20.6452 11.1011 20.6201 11.3326 20.5242C11.5641 20.4283 11.7619 20.266 11.9011 20.0576C12.0403 19.8493 12.1146 19.6043 12.1146 19.3538C12.1143 19.018 11.9807 18.6961 11.7431 18.4588C11.5057 18.2217 11.1837 18.087 10.8478 18.087ZM10.213 18.4038C10.4009 18.2783 10.6218 18.2113 10.8478 18.2113C11.1505 18.2113 11.441 18.3326 11.6553 18.5467C11.8696 18.7607 11.9901 19.0511 11.9904 19.3539C11.9904 19.5799 11.9234 19.8007 11.7978 19.9886C11.6723 20.1765 11.4938 20.323 11.2851 20.4094C11.0763 20.4959 10.8465 20.5186 10.6249 20.4745C10.4033 20.4304 10.1997 20.3216 10.0399 20.1618C9.88009 20.002 9.77127 19.7984 9.72718 19.5767C9.68309 19.3551 9.70572 19.1254 9.7922 18.9166C9.87868 18.7078 10.0251 18.5294 10.213 18.4038Z" stroke="#999999" stroke-width="0.2"/>
</g>
<defs>
<clipPath id="clip0_4329_114195">
<rect width="24" height="24" fill="white" transform="translate(0.941406)"/>
</clipPath>
</defs>
</svg>
