<svg width="12" height="12" viewBox="0 0 12 12" fill="none" xmlns="http://www.w3.org/2000/svg">
<path d="M11.4336 4.75961C11.4001 4.65668 11.3369 4.56579 11.2518 4.49829C11.1666 4.43079 11.0633 4.38968 10.9548 4.38007L7.93526 4.10811L6.7413 1.33472C6.69844 1.23541 6.62716 1.15077 6.5363 1.09127C6.44544 1.03178 6.33899 1.00004 6.23014 1C6.12118 1.00001 6.01463 1.03182 5.92375 1.09147C5.83286 1.15111 5.76165 1.23597 5.71898 1.33547L4.52503 4.10811L1.50551 4.38007C1.39713 4.38991 1.29405 4.43113 1.20906 4.4986C1.12408 4.56607 1.06094 4.65683 1.02747 4.75961C0.993625 4.86243 0.990996 4.97285 1.01991 5.07714C1.04882 5.18143 1.108 5.27497 1.19008 5.34612L3.47185 7.33277L2.79883 10.275C2.77461 10.3805 2.78217 10.4907 2.82059 10.5919C2.85901 10.6932 2.92658 10.7809 3.01489 10.8443C3.10961 10.9127 3.22372 10.9496 3.34086 10.9497C3.44137 10.9497 3.53998 10.9225 3.62617 10.8712L6.23014 9.32614L8.83336 10.8712C8.92658 10.9269 9.03426 10.9541 9.14297 10.9495C9.25167 10.9448 9.35659 10.9085 9.44464 10.8451C9.53288 10.7816 9.60039 10.6938 9.6388 10.5926C9.67721 10.4914 9.68483 10.3812 9.6607 10.2758L8.98768 7.33426L11.2695 5.34836C11.3516 5.27723 11.4108 5.18372 11.4399 5.07945C11.4689 4.97518 11.4665 4.86475 11.4328 4.76186L11.4336 4.75961Z" fill="#F79960"/>
</svg>
